<svg width="128" height="128" viewBox="0 0 128 128" xmlns="http://www.w3.org/2000/svg">
  <!-- Background -->
  <rect width="128" height="128" rx="16" fill="#cfe9f2"/>

  <!-- Left code panel -->
  <rect x="12" y="28" width="50" height="90" rx="4" fill="#4a90e2"/>
  <text x="37" y="80" font-family="monospace" font-size="24" fill="white" text-anchor="middle">&lt;/&gt;</text>

  <!-- Right grid panel background -->
  <rect x="68" y="28" width="50" height="90" rx="4" fill="#e3f2fd"/>

  <!-- Grid blocks (all colored) -->
  <rect x="75" y="35" width="16" height="16" rx="2" fill="#f8b195"/>
  <rect x="95" y="35" width="16" height="16" rx="2" fill="#f67280"/>

  <rect x="75" y="55" width="16" height="16" rx="2" fill="#c06c84"/>
  <rect x="95" y="55" width="16" height="16" rx="2" fill="#6c5b7b"/>

  <rect x="75" y="75" width="16" height="16" rx="2" fill="#355c7d"/>
  <rect x="95" y="75" width="16" height="16" rx="2" fill="#fbc02d"/>

  <rect x="75" y="95" width="16" height="16" rx="2" fill="#81c784"/>
  <rect x="95" y="95" width="16" height="16" rx="2" fill="#64b5f6"/>

  <!-- Top window circles -->
  <circle cx="20" cy="16" r="5" fill="#e57373"/>
  <circle cx="35" cy="16" r="5" fill="#fff176"/>
  <circle cx="50" cy="16" r="5" fill="#81c784"/>
</svg>
